<svg xmlns="http://www.w3.org/2000/svg" viewBox="0 0 512 512">
  <rect width="512" height="512" rx="48" fill="#00b8c4"/>
  <path fill="#ffffff" d="M150 116h212c22 0 40 18 40 40v236c0 7-5 12-12 12H150c-22 0-40-18-40-40V156c0-22 18-40 40-40Z"/>
  <path fill="#eef2f2" d="M154 152h196c8 0 14 6 14 14v196H154c-10 0-18 8-18 18V170c0-10 8-18 18-18Z"/>
  <path fill="#7d5ba6" d="M196 218h38v-38h44v38h38v44h-38v38h-44v-38h-38v-44Z"/>
  <path fill="#2f90a8" d="M158 376h212v24H158c-13 0-24-11-24-24s11-24 24-24h212v24H158Z"/>
</svg>
